<mxfile host="Electron" modified="2024-07-19T04:56:17.680Z" agent="Mozilla/5.0 (Windows NT 10.0; Win64; x64) AppleWebKit/537.36 (KHTML, like Gecko) draw.io/24.6.4 Chrome/124.0.6367.207 Electron/30.0.6 Safari/537.36" etag="21oOK9jz5msMoffw6L0p" version="24.6.4" type="device">
  <diagram name="Page-1" id="jyBPuz5t3vXaUfaW5-tp">
    <mxGraphModel dx="1036" dy="606" grid="1" gridSize="10" guides="1" tooltips="1" connect="1" arrows="1" fold="1" page="1" pageScale="1" pageWidth="850" pageHeight="1100" math="0" shadow="0">
      <root>
        <mxCell id="0" />
        <mxCell id="1" parent="0" />
        <mxCell id="845-nfjskr84EKKKgAcY-1" style="edgeStyle=none;rounded=0;orthogonalLoop=1;jettySize=auto;html=1;exitX=0.5;exitY=1;exitDx=0;exitDy=0;entryX=0.5;entryY=0;entryDx=0;entryDy=0;" edge="1" parent="1" source="845-nfjskr84EKKKgAcY-3" target="845-nfjskr84EKKKgAcY-10">
          <mxGeometry relative="1" as="geometry" />
        </mxCell>
        <mxCell id="845-nfjskr84EKKKgAcY-2" style="edgeStyle=none;rounded=0;orthogonalLoop=1;jettySize=auto;html=1;exitX=0.5;exitY=1;exitDx=0;exitDy=0;entryX=0.5;entryY=0;entryDx=0;entryDy=0;" edge="1" parent="1" source="845-nfjskr84EKKKgAcY-3" target="845-nfjskr84EKKKgAcY-9">
          <mxGeometry relative="1" as="geometry" />
        </mxCell>
        <mxCell id="845-nfjskr84EKKKgAcY-3" value="Plant" style="rounded=1;whiteSpace=wrap;html=1;" vertex="1" parent="1">
          <mxGeometry x="360" y="30" width="120" height="60" as="geometry" />
        </mxCell>
        <mxCell id="845-nfjskr84EKKKgAcY-4" style="edgeStyle=none;rounded=0;orthogonalLoop=1;jettySize=auto;html=1;exitX=0.5;exitY=1;exitDx=0;exitDy=0;entryX=0.5;entryY=0;entryDx=0;entryDy=0;" edge="1" parent="1" source="845-nfjskr84EKKKgAcY-10" target="845-nfjskr84EKKKgAcY-12">
          <mxGeometry relative="1" as="geometry" />
        </mxCell>
        <mxCell id="845-nfjskr84EKKKgAcY-5" style="edgeStyle=none;rounded=0;orthogonalLoop=1;jettySize=auto;html=1;exitX=0.5;exitY=1;exitDx=0;exitDy=0;entryX=0.5;entryY=0;entryDx=0;entryDy=0;" edge="1" parent="1" source="845-nfjskr84EKKKgAcY-10" target="845-nfjskr84EKKKgAcY-14">
          <mxGeometry relative="1" as="geometry" />
        </mxCell>
        <mxCell id="845-nfjskr84EKKKgAcY-6" style="edgeStyle=none;rounded=0;orthogonalLoop=1;jettySize=auto;html=1;exitX=0.5;exitY=1;exitDx=0;exitDy=0;entryX=0.5;entryY=0;entryDx=0;entryDy=0;" edge="1" parent="1" source="845-nfjskr84EKKKgAcY-9" target="845-nfjskr84EKKKgAcY-16">
          <mxGeometry relative="1" as="geometry" />
        </mxCell>
        <mxCell id="845-nfjskr84EKKKgAcY-7" style="edgeStyle=none;rounded=0;orthogonalLoop=1;jettySize=auto;html=1;exitX=0.5;exitY=1;exitDx=0;exitDy=0;entryX=0.5;entryY=0;entryDx=0;entryDy=0;" edge="1" parent="1" source="845-nfjskr84EKKKgAcY-9" target="845-nfjskr84EKKKgAcY-15">
          <mxGeometry relative="1" as="geometry" />
        </mxCell>
        <mxCell id="845-nfjskr84EKKKgAcY-8" style="edgeStyle=none;rounded=0;orthogonalLoop=1;jettySize=auto;html=1;exitX=0.5;exitY=1;exitDx=0;exitDy=0;entryX=0.5;entryY=0;entryDx=0;entryDy=0;" edge="1" parent="1" source="845-nfjskr84EKKKgAcY-9" target="845-nfjskr84EKKKgAcY-17">
          <mxGeometry relative="1" as="geometry">
            <mxPoint x="230" y="430" as="targetPoint" />
          </mxGeometry>
        </mxCell>
        <mxCell id="845-nfjskr84EKKKgAcY-9" value="External" style="rounded=1;whiteSpace=wrap;html=1;" vertex="1" parent="1">
          <mxGeometry x="180" y="150" width="120" height="60" as="geometry" />
        </mxCell>
        <mxCell id="845-nfjskr84EKKKgAcY-10" value="Internal" style="rounded=1;whiteSpace=wrap;html=1;" vertex="1" parent="1">
          <mxGeometry x="550" y="150" width="120" height="60" as="geometry" />
        </mxCell>
        <mxCell id="845-nfjskr84EKKKgAcY-11" style="rounded=0;orthogonalLoop=1;jettySize=auto;html=1;exitX=0.5;exitY=1;exitDx=0;exitDy=0;entryX=0.25;entryY=0;entryDx=0;entryDy=0;" edge="1" parent="1" source="845-nfjskr84EKKKgAcY-12" target="845-nfjskr84EKKKgAcY-23">
          <mxGeometry relative="1" as="geometry" />
        </mxCell>
        <mxCell id="845-nfjskr84EKKKgAcY-12" value="Internal Stem Structure&amp;nbsp;" style="rounded=1;whiteSpace=wrap;html=1;" vertex="1" parent="1">
          <mxGeometry x="460" y="350" width="120" height="60" as="geometry" />
        </mxCell>
        <mxCell id="845-nfjskr84EKKKgAcY-13" style="rounded=0;orthogonalLoop=1;jettySize=auto;html=1;exitX=0.5;exitY=1;exitDx=0;exitDy=0;entryX=0.5;entryY=0;entryDx=0;entryDy=0;" edge="1" parent="1" source="845-nfjskr84EKKKgAcY-14" target="845-nfjskr84EKKKgAcY-18">
          <mxGeometry relative="1" as="geometry" />
        </mxCell>
        <mxCell id="845-nfjskr84EKKKgAcY-14" value="Roots Structure" style="rounded=1;whiteSpace=wrap;html=1;" vertex="1" parent="1">
          <mxGeometry x="730" y="280" width="120" height="60" as="geometry" />
        </mxCell>
        <mxCell id="845-nfjskr84EKKKgAcY-15" value="Leaves" style="rounded=1;whiteSpace=wrap;html=1;" vertex="1" parent="1">
          <mxGeometry x="10" y="290" width="120" height="60" as="geometry" />
        </mxCell>
        <mxCell id="845-nfjskr84EKKKgAcY-16" value="Flower" style="rounded=1;whiteSpace=wrap;html=1;" vertex="1" parent="1">
          <mxGeometry x="60" y="410" width="120" height="60" as="geometry" />
        </mxCell>
        <mxCell id="845-nfjskr84EKKKgAcY-17" value="Seeds" style="rounded=1;whiteSpace=wrap;html=1;" vertex="1" parent="1">
          <mxGeometry x="230" y="400" width="120" height="60" as="geometry" />
        </mxCell>
        <mxCell id="845-nfjskr84EKKKgAcY-18" value="Epidermis" style="rounded=1;whiteSpace=wrap;html=1;" vertex="1" parent="1">
          <mxGeometry x="745" y="420" width="90" height="40" as="geometry" />
        </mxCell>
        <mxCell id="845-nfjskr84EKKKgAcY-19" value="Endodermis" style="rounded=1;whiteSpace=wrap;html=1;" vertex="1" parent="1">
          <mxGeometry x="880" y="390" width="90" height="40" as="geometry" />
        </mxCell>
        <mxCell id="845-nfjskr84EKKKgAcY-20" style="rounded=0;orthogonalLoop=1;jettySize=auto;html=1;exitX=0.5;exitY=1;exitDx=0;exitDy=0;entryX=0.418;entryY=-0.025;entryDx=0;entryDy=0;entryPerimeter=0;" edge="1" parent="1" source="845-nfjskr84EKKKgAcY-14" target="845-nfjskr84EKKKgAcY-19">
          <mxGeometry relative="1" as="geometry" />
        </mxCell>
        <mxCell id="845-nfjskr84EKKKgAcY-21" value="Cortex" style="rounded=1;whiteSpace=wrap;html=1;" vertex="1" parent="1">
          <mxGeometry x="390" y="460" width="90" height="40" as="geometry" />
        </mxCell>
        <mxCell id="845-nfjskr84EKKKgAcY-22" style="rounded=0;orthogonalLoop=1;jettySize=auto;html=1;exitX=0.5;exitY=1;exitDx=0;exitDy=0;entryX=0.658;entryY=-0.015;entryDx=0;entryDy=0;entryPerimeter=0;" edge="1" parent="1" source="845-nfjskr84EKKKgAcY-12" target="845-nfjskr84EKKKgAcY-21">
          <mxGeometry relative="1" as="geometry" />
        </mxCell>
        <mxCell id="845-nfjskr84EKKKgAcY-23" value="Cambium" style="rounded=1;whiteSpace=wrap;html=1;" vertex="1" parent="1">
          <mxGeometry x="580" y="460" width="90" height="40" as="geometry" />
        </mxCell>
      </root>
    </mxGraphModel>
  </diagram>
</mxfile>
